<svg width="204" height="48" viewBox="0 0 204 48" fill="none" xmlns="http://www.w3.org/2000/svg">
<g clip-path="url(#clip0_2004_614)">
<path d="M4.78154 26.34C5.1825 28.06 6.02454 29.46 7.30763 30.54C8.59073 31.62 10.1745 32.15 12.0791 32.15C13.2319 32.15 14.2644 31.95 15.1866 31.55C16.1089 31.15 16.9008 30.59 17.5624 29.87L20.6298 33.06C19.5973 34.12 18.3543 34.95 16.9208 35.56C15.4773 36.16 13.8735 36.46 12.0892 36.46C10.3049 36.46 8.69097 36.15 7.23746 35.53C5.78396 34.91 4.54096 34.06 3.50847 32.97C2.47598 31.88 1.66402 30.59 1.09264 29.1C0.521262 27.61 0.23056 25.97 0.23056 24.19C0.23056 22.41 0.521262 20.77 1.09264 19.28C1.66402 17.79 2.47598 16.5 3.50847 15.41C4.54096 14.32 5.78396 13.47 7.23746 12.85C8.69097 12.23 10.3049 11.93 12.0892 11.93C13.8735 11.93 15.4673 12.24 16.8807 12.85C18.2941 13.47 19.487 14.32 20.4794 15.41C21.4718 16.5 22.2236 17.79 22.7449 19.28C23.2661 20.77 23.5167 22.41 23.5167 24.19C23.5167 24.56 23.5067 24.93 23.4766 25.29C23.4466 25.65 23.4065 26 23.3463 26.34H4.78154ZM18.9758 22.04C18.635 20.32 17.8731 18.92 16.6903 17.84C15.5074 16.76 13.9737 16.23 12.0691 16.23C10.1645 16.23 8.5807 16.77 7.29761 17.84C6.01451 18.92 5.17248 20.32 4.77151 22.04H18.9658H18.9758Z" fill="white" stroke="white" stroke-width="0.41" stroke-miterlimit="10"/>
<path d="M28.9398 24.19C28.9398 22.41 29.2305 20.77 29.8019 19.28C30.3733 17.79 31.1852 16.5 32.2177 15.41C33.2502 14.32 34.4932 13.47 35.9467 12.85C37.4002 12.23 39.0141 11.93 40.7984 11.93C42.5827 11.93 44.1966 12.23 45.6301 12.83C47.0635 13.43 48.3065 14.27 49.339 15.33L46.2716 18.52C45.61 17.8 44.8181 17.24 43.8959 16.84C42.9737 16.44 41.9412 16.24 40.7884 16.24C39.6356 16.24 38.6332 16.44 37.701 16.84C36.7687 17.24 35.9668 17.8 35.3052 18.52C34.6436 19.24 34.1323 20.08 33.7715 21.06C33.4106 22.04 33.2302 23.08 33.2302 24.2C33.2302 25.32 33.4106 26.37 33.7715 27.34C34.1323 28.32 34.6436 29.16 35.3052 29.88C35.9668 30.6 36.7687 31.16 37.701 31.56C38.6332 31.96 39.6657 32.16 40.7884 32.16C41.9111 32.16 42.9737 31.96 43.8959 31.56C44.8181 31.16 45.61 30.6 46.2716 29.88L49.339 33.07C48.3065 34.13 47.0635 34.96 45.6301 35.57C44.1866 36.17 42.5827 36.47 40.7984 36.47C39.0141 36.47 37.4002 36.16 35.9467 35.54C34.4932 34.92 33.2502 34.07 32.2177 32.98C31.1852 31.89 30.3733 30.6 29.8019 29.11C29.2305 27.62 28.9398 25.98 28.9398 24.2V24.19Z" fill="white" stroke="white" stroke-width="0.41" stroke-miterlimit="10"/>
<path d="M52.4164 24.19C52.4164 22.41 52.7071 20.77 53.2785 19.28C53.8499 17.79 54.6619 16.5 55.6944 15.41C56.7268 14.32 57.9698 13.47 59.4233 12.85C60.8768 12.23 62.4907 11.93 64.275 11.93C66.0594 11.93 67.6732 12.24 69.1267 12.85C70.5803 13.47 71.8233 14.32 72.8557 15.41C73.8882 16.5 74.7002 17.79 75.2716 19.28C75.8429 20.77 76.1336 22.41 76.1336 24.19C76.1336 25.97 75.8429 27.61 75.2716 29.1C74.7002 30.59 73.8882 31.88 72.8557 32.97C71.8233 34.06 70.5803 34.91 69.1267 35.53C67.6732 36.15 66.0594 36.46 64.275 36.46C62.4907 36.46 60.8768 36.15 59.4233 35.53C57.9698 34.91 56.7268 34.06 55.6944 32.97C54.6619 31.88 53.8499 30.59 53.2785 29.1C52.7071 27.61 52.4164 25.97 52.4164 24.19ZM56.7268 24.19C56.7268 25.31 56.9073 26.36 57.2681 27.33C57.629 28.31 58.1402 29.15 58.8018 29.87C59.4634 30.59 60.2654 31.15 61.1976 31.55C62.1299 31.95 63.1624 32.15 64.2851 32.15C65.4078 32.15 66.4403 31.95 67.3725 31.55C68.3048 31.15 69.1067 30.59 69.7683 29.87C70.4299 29.15 70.9411 28.31 71.302 27.33C71.6629 26.35 71.8433 25.31 71.8433 24.19C71.8433 23.07 71.6629 22.02 71.302 21.05C70.9411 20.08 70.4299 19.23 69.7683 18.51C69.1067 17.79 68.3048 17.23 67.3725 16.83C66.4403 16.43 65.4078 16.23 64.2851 16.23C63.1624 16.23 62.1299 16.43 61.1976 16.83C60.2654 17.23 59.4634 17.79 58.8018 18.51C58.1402 19.23 57.629 20.07 57.2681 21.05C56.9073 22.03 56.7268 23.07 56.7268 24.19Z" fill="white" stroke="white" stroke-width="0.41" stroke-miterlimit="10"/>
<path d="M82.0178 1.59H86.3282V36.03H82.0178V1.59Z" fill="white" stroke="white" stroke-width="0.41" stroke-miterlimit="10"/>
<path d="M142.243 24.19C142.243 22.41 142.534 20.77 143.105 19.28C143.677 17.79 144.489 16.5 145.521 15.41C146.554 14.32 147.797 13.47 149.25 12.85C150.704 12.23 152.317 11.93 154.102 11.93C155.746 11.93 157.239 12.19 158.593 12.7C159.946 13.22 161.119 13.93 162.131 14.85L162.522 12.35H165.97V34.95C165.97 36.73 165.68 38.34 165.108 39.79C164.537 41.24 163.725 42.48 162.692 43.51C161.66 44.54 160.417 45.35 158.963 45.92C157.51 46.49 155.896 46.78 154.112 46.78C152.327 46.78 150.673 46.49 149.24 45.92C147.807 45.35 146.564 44.54 145.531 43.51L148.639 40.41C150.022 41.79 151.846 42.48 154.122 42.48C155.244 42.48 156.277 42.3 157.209 41.94C158.141 41.58 158.943 41.07 159.605 40.41C160.267 39.75 160.778 38.95 161.139 38.02C161.5 37.09 161.68 36.06 161.68 34.94V33.95C160.678 34.75 159.535 35.37 158.272 35.8C157.009 36.23 155.625 36.45 154.132 36.45C152.347 36.45 150.734 36.15 149.28 35.55C147.827 34.95 146.584 34.1 145.551 33.01C144.519 31.92 143.707 30.62 143.135 29.11C142.564 27.6 142.273 25.96 142.273 24.18L142.243 24.19ZM146.554 24.19C146.554 25.31 146.734 26.36 147.095 27.33C147.456 28.31 147.967 29.15 148.629 29.87C149.29 30.59 150.092 31.15 151.024 31.55C151.957 31.95 152.989 32.15 154.112 32.15C155.234 32.15 156.267 31.95 157.199 31.55C158.131 31.15 158.933 30.59 159.595 29.87C160.257 29.15 160.768 28.31 161.129 27.33C161.49 26.35 161.67 25.31 161.67 24.19C161.67 23.07 161.49 22.02 161.129 21.05C160.768 20.08 160.257 19.23 159.595 18.51C158.933 17.79 158.131 17.23 157.199 16.83C156.267 16.43 155.234 16.23 154.112 16.23C152.989 16.23 151.957 16.43 151.024 16.83C150.092 17.23 149.29 17.79 148.629 18.51C147.967 19.23 147.456 20.07 147.095 21.05C146.734 22.03 146.554 23.07 146.554 24.19Z" fill="white" stroke="white" stroke-width="0.41" stroke-miterlimit="10"/>
<path d="M172.276 6.75999C172.276 6.09999 172.466 5.57999 172.857 5.18999C173.248 4.79999 173.769 4.60999 174.431 4.60999C175.092 4.60999 175.614 4.79999 176.005 5.18999C176.396 5.57999 176.586 6.09999 176.586 6.75999C176.586 7.41999 176.396 7.93999 176.005 8.32999C175.614 8.71999 175.092 8.90999 174.431 8.90999C173.769 8.90999 173.248 8.71999 172.857 8.32999C172.466 7.93999 172.276 7.41999 172.276 6.75999ZM172.276 12.35H176.586V36.02H172.276V12.35Z" fill="white" stroke="white" stroke-width="0.41" stroke-miterlimit="10"/>
<path d="M182.46 24.19C182.46 22.41 182.751 20.77 183.322 19.28C183.894 17.79 184.706 16.5 185.738 15.41C186.771 14.32 188.014 13.47 189.467 12.85C190.921 12.23 192.534 11.93 194.319 11.93C196.103 11.93 197.717 12.23 199.15 12.83C200.584 13.43 201.827 14.27 202.859 15.33L199.792 18.52C199.13 17.8 198.338 17.24 197.416 16.84C196.494 16.44 195.461 16.24 194.309 16.24C193.156 16.24 192.154 16.44 191.221 16.84C190.289 17.24 189.487 17.8 188.825 18.52C188.164 19.24 187.653 20.08 187.292 21.06C186.931 22.04 186.75 23.08 186.75 24.2C186.75 25.32 186.931 26.37 187.292 27.34C187.653 28.32 188.164 29.16 188.825 29.88C189.487 30.6 190.289 31.16 191.221 31.56C192.154 31.96 193.186 32.16 194.309 32.16C195.431 32.16 196.494 31.96 197.416 31.56C198.338 31.16 199.13 30.6 199.792 29.88L202.859 33.07C201.827 34.13 200.584 34.96 199.15 35.57C197.707 36.17 196.103 36.47 194.319 36.47C192.534 36.47 190.921 36.16 189.467 35.54C188.014 34.92 186.771 34.07 185.738 32.98C184.706 31.89 183.894 30.6 183.322 29.11C182.751 27.62 182.46 25.98 182.46 24.2V24.19Z" fill="white" stroke="white" stroke-width="0.41" stroke-miterlimit="10"/>
<path d="M105.875 24.68C105.895 24.86 105.935 25.03 105.975 25.21L105.875 25.23C105.845 25.05 105.825 24.87 105.805 24.68H105.865H105.875Z" fill="white" stroke="white" stroke-width="0.34" stroke-miterlimit="10"/>
<path d="M106.076 25.57L105.936 25.61C105.966 25.79 105.996 25.96 106.036 26.13L106.246 26.07L106.086 25.57H106.076Z" fill="white" stroke="white" stroke-width="0.34" stroke-miterlimit="10"/>
<path d="M106.367 26.43L106.106 26.53C106.136 26.71 106.176 26.88 106.226 27.06L106.577 26.91L106.367 26.43Z" fill="white" stroke="white" stroke-width="0.34" stroke-miterlimit="10"/>
<path d="M106.748 27.25L106.347 27.45C106.387 27.63 106.447 27.8 106.497 27.97L106.978 27.7L106.748 27.26V27.25Z" fill="white" stroke="white" stroke-width="0.34" stroke-miterlimit="10"/>
<path d="M107.199 28.04L106.637 28.39C106.697 28.56 106.748 28.73 106.828 28.9L107.479 28.43L107.199 28.04Z" fill="white" stroke="white" stroke-width="0.34" stroke-miterlimit="10"/>
<path d="M107.74 28.77L107.008 29.34C107.078 29.51 107.148 29.68 107.239 29.84L108.051 29.13L107.74 28.77Z" fill="white" stroke="white" stroke-width="0.34" stroke-miterlimit="10"/>
<path d="M108.341 29.45L107.449 30.31C107.529 30.48 107.62 30.64 107.7 30.8L108.672 29.76L108.341 29.45Z" fill="white" stroke="white" stroke-width="0.34" stroke-miterlimit="10"/>
<path d="M109.023 30.07C109.133 30.16 109.254 30.26 109.374 30.34L108.291 31.76C108.191 31.61 108.091 31.45 107.991 31.29L109.023 30.07Z" fill="white" stroke="white" stroke-width="0.34" stroke-miterlimit="10"/>
<path d="M109.745 30.62L108.612 32.26C108.722 32.41 108.833 32.57 108.943 32.72L110.106 30.84L109.745 30.61V30.62Z" fill="white" stroke="white" stroke-width="0.34" stroke-miterlimit="10"/>
<path d="M110.527 31.08C110.647 31.14 110.767 31.21 110.898 31.27L109.715 33.66C109.584 33.51 109.454 33.37 109.344 33.23L110.527 31.09V31.08Z" fill="white" stroke="white" stroke-width="0.34" stroke-miterlimit="10"/>
<path d="M111.349 31.46L110.206 34.17C110.276 34.26 110.366 34.35 110.446 34.43L110.607 34.59L111.709 31.6L111.349 31.46Z" fill="white" stroke="white" stroke-width="0.34" stroke-miterlimit="10"/>
<path d="M112.191 31.76C112.311 31.8 112.431 31.83 112.562 31.86L111.609 35.48C111.459 35.36 111.309 35.23 111.168 35.1L112.191 31.76Z" fill="white" stroke="white" stroke-width="0.34" stroke-miterlimit="10"/>
<path d="M113.063 31.97L112.261 35.99C112.411 36.11 112.572 36.22 112.742 36.34L113.424 32.04L113.063 31.98V31.97Z" fill="white" stroke="white" stroke-width="0.34" stroke-miterlimit="10"/>
<path d="M113.955 32.09L113.514 36.82C113.684 36.93 113.865 37.03 114.035 37.13L114.306 32.13L113.955 32.1V32.09Z" fill="white" stroke="white" stroke-width="0.34" stroke-miterlimit="10"/>
<path d="M115.208 32.12L115.459 37.82C115.268 37.74 115.088 37.66 114.897 37.56L114.867 32.12C114.977 32.12 115.098 32.12 115.208 32.12Z" fill="white" stroke="white" stroke-width="0.34" stroke-miterlimit="10"/>
<path d="M115.779 32.07L116.421 38.21C116.611 38.28 116.812 38.35 117.002 38.4L116.09 32.03L115.779 32.07Z" fill="white" stroke="white" stroke-width="0.34" stroke-miterlimit="10"/>
<path d="M116.661 31.92L118.085 38.69C118.275 38.74 118.476 38.78 118.676 38.81L116.972 31.85L116.661 31.91V31.92Z" fill="white" stroke="white" stroke-width="0.34" stroke-miterlimit="10"/>
<path d="M117.534 31.69L119.859 39.01C120.06 39.03 120.25 39.06 120.461 39.07L117.814 31.6L117.544 31.7L117.534 31.69Z" fill="white" stroke="white" stroke-width="0.34" stroke-miterlimit="10"/>
<path d="M118.366 31.37L121.734 39.12H121.754C121.944 39.12 122.135 39.12 122.325 39.12L118.616 31.27L118.356 31.38L118.366 31.37Z" fill="white" stroke="white" stroke-width="0.34" stroke-miterlimit="10"/>
<path d="M119.167 30.97L123.668 39C123.859 38.98 124.059 38.96 124.25 38.92L119.388 30.84L119.157 30.97H119.167Z" fill="white" stroke="white" stroke-width="0.34" stroke-miterlimit="10"/>
<path d="M120.14 30.34L126.204 38.48C126.024 38.54 125.844 38.59 125.653 38.63L119.929 30.48C119.999 30.43 120.07 30.38 120.14 30.33V30.34Z" fill="white" stroke="white" stroke-width="0.34" stroke-miterlimit="10"/>
<path d="M120.641 29.93L127.628 38C127.798 37.94 127.969 37.87 128.139 37.79L120.821 29.78L120.641 29.93Z" fill="white" stroke="white" stroke-width="0.34" stroke-miterlimit="10"/>
<path d="M121.433 29.15L129.984 36.83C129.833 36.93 129.683 37.02 129.522 37.1L121.283 29.32C121.343 29.26 121.383 29.21 121.433 29.15Z" fill="white" stroke="white" stroke-width="0.34" stroke-miterlimit="10"/>
<path d="M122.004 28.47L131.738 35.61C131.607 35.71 131.467 35.82 131.337 35.92L121.874 28.63C121.924 28.57 121.964 28.52 122.004 28.47Z" fill="white" stroke="white" stroke-width="0.34" stroke-miterlimit="10"/>
<path d="M122.495 27.74L133.342 34.15C133.241 34.26 133.121 34.38 133.001 34.49L122.405 27.9C122.435 27.84 122.465 27.79 122.506 27.74H122.495Z" fill="white" stroke="white" stroke-width="0.34" stroke-miterlimit="10"/>
<path d="M122.916 26.95L134.745 32.46C134.665 32.58 134.575 32.7 134.484 32.81L122.836 27.11C122.866 27.05 122.896 27.01 122.916 26.95Z" fill="white" stroke="white" stroke-width="0.34" stroke-miterlimit="10"/>
<path d="M123.257 26.14L135.928 30.56C135.868 30.69 135.808 30.81 135.727 30.93L123.207 26.29C123.227 26.23 123.247 26.19 123.267 26.14H123.257Z" fill="white" stroke="white" stroke-width="0.34" stroke-miterlimit="10"/>
<path d="M123.508 25.3L136.84 28.51C136.8 28.63 136.76 28.75 136.7 28.86L123.478 25.45C123.478 25.45 123.498 25.35 123.508 25.3Z" fill="white" stroke="white" stroke-width="0.34" stroke-miterlimit="10"/>
<path d="M123.668 24.44L137.442 26.32C137.421 26.43 137.401 26.55 137.371 26.66L123.648 24.57C123.648 24.57 123.668 24.48 123.668 24.43V24.44Z" fill="white" stroke="white" stroke-width="0.34" stroke-miterlimit="10"/>
<path d="M123.759 23.67L137.722 24.38C137.722 24.28 137.742 24.17 137.742 24.07L123.769 23.56V23.67H123.759Z" fill="white" stroke="white" stroke-width="0.34" stroke-miterlimit="10"/>
<path d="M123.728 22.1L137.602 20.39C137.672 20.95 137.722 21.51 137.742 22.08L123.769 22.76L123.738 22.09L123.728 22.1Z" fill="white" stroke="white" stroke-width="0.34" stroke-miterlimit="10"/>
<path d="M137.211 18.17C137.311 18.61 137.401 19.06 137.472 19.51L123.708 21.75C123.708 21.56 123.678 21.39 123.648 21.2L137.211 18.16V18.17Z" fill="white" stroke="white" stroke-width="0.34" stroke-miterlimit="10"/>
<path d="M136.61 15.97C136.75 16.4 136.88 16.82 136.99 17.26L123.598 20.84C123.578 20.66 123.538 20.49 123.508 20.31L136.61 15.97Z" fill="white" stroke="white" stroke-width="0.34" stroke-miterlimit="10"/>
<path d="M135.788 13.84C135.978 14.23 136.138 14.64 136.289 15.05L123.448 19.94C123.418 19.76 123.378 19.59 123.328 19.42L135.788 13.85V13.84Z" fill="white" stroke="white" stroke-width="0.34" stroke-miterlimit="10"/>
<path d="M134.745 11.81C134.966 12.18 135.156 12.55 135.347 12.93L123.217 19C123.167 18.83 123.117 18.66 123.077 18.5L134.755 11.81H134.745Z" fill="white" stroke="white" stroke-width="0.34" stroke-miterlimit="10"/>
<path d="M133.522 9.89001L134.204 10.91L122.937 18.07C122.876 17.9 122.816 17.73 122.746 17.56L133.512 9.89001H133.522Z" fill="white" stroke="white" stroke-width="0.34" stroke-miterlimit="10"/>
<path d="M132.109 8.11002L132.871 9.03002L122.586 17.13C122.526 16.96 122.445 16.8 122.365 16.64L132.109 8.11002Z" fill="white" stroke="white" stroke-width="0.34" stroke-miterlimit="10"/>
<path d="M130.525 6.46001L131.357 7.28001L122.145 16.15C122.064 15.98 121.984 15.82 121.894 15.66L130.525 6.45001V6.46001Z" fill="white" stroke="white" stroke-width="0.34" stroke-miterlimit="10"/>
<path d="M128.801 4.98L129.673 5.69L121.623 15.18C121.533 15.02 121.443 14.86 121.343 14.7L128.801 4.97V4.98Z" fill="white" stroke="white" stroke-width="0.34" stroke-miterlimit="10"/>
<path d="M126.926 3.68001L127.838 4.28001L121.012 14.2C120.912 14.05 120.791 13.89 120.681 13.74L126.926 3.67001V3.68001Z" fill="white" stroke="white" stroke-width="0.34" stroke-miterlimit="10"/>
<path d="M124.931 2.57001L125.864 3.06001L120.28 13.22C120.17 13.08 120.05 12.93 119.929 12.79L124.931 2.57001Z" fill="white" stroke="white" stroke-width="0.34" stroke-miterlimit="10"/>
<path d="M112.642 7.93002C112.832 7.99002 113.033 8.05002 113.223 8.13002L112.642 7.93002Z" fill="white"/>
<path d="M112.642 7.93002C112.832 7.99002 113.033 8.05002 113.223 8.13002" stroke="white" stroke-width="0.34" stroke-miterlimit="10"/>
<path d="M122.836 1.65002L123.779 2.03002L119.448 12.26C119.318 12.12 119.188 11.99 119.057 11.86C119.057 11.86 119.051 11.8534 119.037 11.84L122.826 1.65002H122.836Z" fill="white" stroke="white" stroke-width="0.34" stroke-miterlimit="10"/>
<path d="M120.641 0.950002L121.593 1.22L118.486 11.3C118.345 11.17 118.185 11.04 118.035 10.91L120.641 0.940002V0.950002Z" fill="white" stroke="white" stroke-width="0.34" stroke-miterlimit="10"/>
<path d="M118.406 0.470001L119.338 0.630001L117.393 10.4C117.233 10.28 117.072 10.16 116.912 10.05L118.416 0.470001H118.406Z" fill="white" stroke="white" stroke-width="0.34" stroke-miterlimit="10"/>
<path d="M116.12 0.220001L117.022 0.280001L116.14 9.54C115.96 9.44 115.789 9.33 115.619 9.23L116.12 0.220001Z" fill="white" stroke="white" stroke-width="0.34" stroke-miterlimit="10"/>
<path d="M114.717 0.170013L114.767 8.77001C114.576 8.68001 114.396 8.59001 114.206 8.52001L113.855 0.190013L114.727 0.170013H114.717Z" fill="white" stroke="white" stroke-width="0.34" stroke-miterlimit="10"/>
<path d="M111.559 0.400009L112.632 7.93001C112.822 7.99001 113.023 8.05001 113.213 8.13001L112.381 0.290009L111.559 0.390009V0.400009Z" fill="white" stroke="white" stroke-width="0.34" stroke-miterlimit="10"/>
<path d="M109.314 0.830024L110.948 7.49002C111.148 7.52002 111.349 7.57002 111.549 7.62002L110.086 0.650024L109.304 0.840024L109.314 0.830024Z" fill="white" stroke="white" stroke-width="0.34" stroke-miterlimit="10"/>
<path d="M107.108 1.49002L109.143 7.23002C109.344 7.25002 109.554 7.26002 109.755 7.29002L107.83 1.24002L107.108 1.48002V1.49002Z" fill="white" stroke="white" stroke-width="0.34" stroke-miterlimit="10"/>
<path d="M104.983 2.36002L107.259 7.18002C107.419 7.16002 107.59 7.16002 107.75 7.16002H107.86L105.645 2.05002L104.983 2.36002Z" fill="white" stroke="white" stroke-width="0.34" stroke-miterlimit="10"/>
<path d="M102.958 3.44002L105.304 7.35002C105.495 7.33002 105.695 7.29002 105.895 7.28002L103.55 3.11002L102.948 3.45002L102.958 3.44002Z" fill="white" stroke="white" stroke-width="0.34" stroke-miterlimit="10"/>
<path d="M101.054 4.72001L103.349 7.79001C103.54 7.73001 103.72 7.69001 103.911 7.65001L101.595 4.35001L101.064 4.73001L101.054 4.72001Z" fill="white" stroke="white" stroke-width="0.34" stroke-miterlimit="10"/>
<path d="M99.2896 6.17001L101.405 8.48001C101.575 8.41001 101.745 8.34001 101.926 8.27001L99.7607 5.76001L99.2896 6.17001Z" fill="white" stroke="white" stroke-width="0.34" stroke-miterlimit="10"/>
<path d="M98.0766 7.37003L99.9912 9.18003C99.8309 9.26003 99.6805 9.36003 99.5201 9.45003L97.6757 7.79003C97.806 7.65003 97.9363 7.51003 98.0766 7.37003Z" fill="white" stroke="white" stroke-width="0.34" stroke-miterlimit="10"/>
<path d="M96.2221 9.56001L97.7558 10.68C97.8861 10.57 98.0265 10.47 98.1468 10.37L96.5529 9.13L96.2221 9.56001Z" fill="white" stroke="white" stroke-width="0.34" stroke-miterlimit="10"/>
<path d="M95.2197 11.04L96.4828 11.82C96.4828 11.82 96.4627 11.84 96.4527 11.85C96.3525 11.95 96.2422 12.06 96.142 12.16L94.9591 11.46C95.0493 11.32 95.1295 11.17 95.2197 11.03V11.04Z" fill="white" stroke="white" stroke-width="0.34" stroke-miterlimit="10"/>
<path d="M94.087 13.07L94.9891 13.51C94.8989 13.63 94.7987 13.75 94.7285 13.88L93.8865 13.49C93.9466 13.35 94.0168 13.21 94.0769 13.07H94.087Z" fill="white" stroke="white" stroke-width="0.34" stroke-miterlimit="10"/>
<path d="M93.1648 15.21L93.7361 15.42C93.676 15.54 93.6058 15.66 93.5457 15.79L93.0244 15.61C93.0545 15.47 93.1046 15.34 93.1648 15.21Z" fill="white" stroke="white" stroke-width="0.34" stroke-miterlimit="10"/>
<path d="M92.3729 17.81L92.6329 17.87C92.6729 17.75 92.7229 17.62 92.7729 17.5L92.4729 17.42L92.3729 17.81Z" fill="white" stroke="white" stroke-width="0.34" stroke-miterlimit="10"/>
<path d="M92.0119 19.72H92.1119C92.0919 19.84 92.0619 19.96 92.0519 20.07H91.9619C91.9619 19.94 91.9819 19.83 92.0219 19.72H92.0119Z" fill="white" stroke="white" stroke-width="0.34" stroke-miterlimit="10"/>
<path d="M91.7713 22.02C91.7713 22.12 91.7513 22.24 91.7513 22.34C91.7513 22.23 91.7513 22.12 91.7513 22.02H91.7713Z" fill="white" stroke="white" stroke-width="0.34" stroke-miterlimit="10"/>
<path d="M105.755 23.69C105.755 23.91 105.775 24.12 105.785 24.33H105.815" fill="white"/>
<path d="M105.755 23.69C105.755 23.91 105.775 24.12 105.785 24.33H105.815" stroke="white" stroke-width="0.34" stroke-miterlimit="10"/>
<path d="M123.708 22.78C123.688 22.6 123.648 22.43 123.608 22.25L123.708 22.23C123.738 22.41 123.758 22.59 123.778 22.78H123.718H123.708Z" fill="white" stroke="white" stroke-width="0.34" stroke-miterlimit="10"/>
<path d="M123.498 21.89L123.638 21.85C123.608 21.67 123.578 21.5 123.538 21.33L123.328 21.39L123.488 21.89H123.498Z" fill="white" stroke="white" stroke-width="0.34" stroke-miterlimit="10"/>
<path d="M123.207 21.03L123.468 20.93C123.438 20.75 123.398 20.58 123.348 20.4L122.997 20.55L123.207 21.03Z" fill="white" stroke="white" stroke-width="0.34" stroke-miterlimit="10"/>
<path d="M122.836 20.21L123.237 20.01C123.197 19.83 123.137 19.66 123.087 19.49L122.606 19.76L122.836 20.2V20.21Z" fill="white" stroke="white" stroke-width="0.34" stroke-miterlimit="10"/>
<path d="M122.375 19.42L122.937 19.07C122.876 18.9 122.826 18.73 122.746 18.56L122.095 19.03L122.375 19.42Z" fill="white" stroke="white" stroke-width="0.34" stroke-miterlimit="10"/>
<path d="M121.834 18.69L122.566 18.12C122.496 17.95 122.425 17.78 122.335 17.62L121.523 18.33L121.834 18.69Z" fill="white" stroke="white" stroke-width="0.34" stroke-miterlimit="10"/>
<path d="M121.232 18.01L122.125 17.15C122.044 16.98 121.954 16.82 121.874 16.66L120.902 17.7L121.232 18.01Z" fill="white" stroke="white" stroke-width="0.34" stroke-miterlimit="10"/>
<path d="M120.551 17.39C120.441 17.3 120.32 17.2 120.2 17.12L121.283 15.7C121.383 15.85 121.483 16.01 121.583 16.17L120.551 17.39Z" fill="white" stroke="white" stroke-width="0.34" stroke-miterlimit="10"/>
<path d="M119.829 16.85L120.962 15.21C120.852 15.06 120.741 14.9 120.631 14.75L119.468 16.63L119.829 16.86V16.85Z" fill="white" stroke="white" stroke-width="0.34" stroke-miterlimit="10"/>
<path d="M119.047 16.39C118.927 16.33 118.807 16.26 118.676 16.2L119.859 13.81C119.989 13.96 120.12 14.1 120.23 14.24L119.047 16.38V16.39Z" fill="white" stroke="white" stroke-width="0.34" stroke-miterlimit="10"/>
<path d="M118.225 16L119.368 13.29C119.298 13.2 119.208 13.11 119.127 13.03L118.967 12.87L117.864 15.86L118.225 16Z" fill="white" stroke="white" stroke-width="0.34" stroke-miterlimit="10"/>
<path d="M117.383 15.7C117.263 15.66 117.143 15.63 117.012 15.6L117.965 11.98C118.115 12.1 118.265 12.23 118.406 12.36L117.383 15.7Z" fill="white" stroke="white" stroke-width="0.34" stroke-miterlimit="10"/>
<path d="M116.511 15.49L117.313 11.47C117.163 11.35 117.002 11.24 116.832 11.12L116.15 15.42L116.511 15.48V15.49Z" fill="white" stroke="white" stroke-width="0.34" stroke-miterlimit="10"/>
<path d="M115.619 15.37L116.06 10.64C115.89 10.53 115.709 10.43 115.539 10.33L115.268 15.33L115.619 15.36V15.37Z" fill="white" stroke="white" stroke-width="0.34" stroke-miterlimit="10"/>
<path d="M114.376 15.34L114.125 9.64001C114.316 9.72001 114.496 9.80001 114.687 9.90001L114.717 15.34C114.606 15.34 114.486 15.34 114.376 15.34Z" fill="white" stroke="white" stroke-width="0.34" stroke-miterlimit="10"/>
<path d="M113.795 15.4L113.153 9.26004C112.963 9.19004 112.762 9.12004 112.572 9.07004L113.484 15.44L113.795 15.4Z" fill="white" stroke="white" stroke-width="0.34" stroke-miterlimit="10"/>
<path d="M112.912 15.54L111.489 8.77003C111.298 8.72003 111.098 8.68002 110.898 8.65002L112.602 15.61L112.912 15.55V15.54Z" fill="white" stroke="white" stroke-width="0.34" stroke-miterlimit="10"/>
<path d="M112.04 15.77L109.715 8.45001C109.514 8.43001 109.324 8.40001 109.113 8.39001L111.76 15.86L112.03 15.76L112.04 15.77Z" fill="white" stroke="white" stroke-width="0.34" stroke-miterlimit="10"/>
<path d="M111.208 16.09L107.84 8.34003H107.82C107.63 8.34003 107.439 8.34003 107.249 8.34003L110.958 16.19L111.218 16.08L111.208 16.09Z" fill="white" stroke="white" stroke-width="0.34" stroke-miterlimit="10"/>
<path d="M110.406 16.49L105.906 8.46002C105.715 8.48002 105.515 8.50002 105.324 8.54002L110.186 16.62L110.416 16.49H110.406Z" fill="white" stroke="white" stroke-width="0.34" stroke-miterlimit="10"/>
<path d="M109.434 17.12L103.369 8.98002C103.55 8.92002 103.73 8.87002 103.921 8.83002L109.645 16.98C109.574 17.03 109.504 17.08 109.434 17.13V17.12Z" fill="white" stroke="white" stroke-width="0.34" stroke-miterlimit="10"/>
<path d="M108.943 17.53L101.956 9.46002C101.786 9.52002 101.615 9.59002 101.445 9.67002L108.762 17.68L108.943 17.53Z" fill="white" stroke="white" stroke-width="0.34" stroke-miterlimit="10"/>
<path d="M108.141 18.31L99.5903 10.63C99.7406 10.53 99.891 10.44 100.051 10.36L108.291 18.14C108.231 18.2 108.191 18.25 108.141 18.31Z" fill="white" stroke="white" stroke-width="0.34" stroke-miterlimit="10"/>
<path d="M107.57 18.99L97.8361 11.85C97.9664 11.75 98.1067 11.64 98.237 11.54L107.7 18.83C107.65 18.89 107.61 18.94 107.57 18.99Z" fill="white" stroke="white" stroke-width="0.34" stroke-miterlimit="10"/>
<path d="M107.078 19.72L96.2322 13.31C96.3324 13.2 96.4527 13.08 96.573 12.97L107.169 19.56C107.138 19.62 107.108 19.67 107.068 19.72H107.078Z" fill="white" stroke="white" stroke-width="0.34" stroke-miterlimit="10"/>
<path d="M106.657 20.51L94.8288 15C94.909 14.88 94.9992 14.76 95.0894 14.65L106.738 20.35C106.707 20.41 106.677 20.45 106.657 20.51Z" fill="white" stroke="white" stroke-width="0.34" stroke-miterlimit="10"/>
<path d="M106.327 21.32L93.6559 16.9C93.7161 16.77 93.7762 16.65 93.8564 16.53L106.377 21.17C106.357 21.23 106.337 21.27 106.316 21.32H106.327Z" fill="white" stroke="white" stroke-width="0.34" stroke-miterlimit="10"/>
<path d="M106.076 22.16L92.7438 18.95C92.7839 18.83 92.824 18.71 92.8841 18.6L106.106 22.01C106.106 22.01 106.086 22.11 106.076 22.16Z" fill="white" stroke="white" stroke-width="0.34" stroke-miterlimit="10"/>
<path d="M105.905 23.02L92.1323 21.14C92.1523 21.03 92.1724 20.91 92.2024 20.8L105.926 22.89C105.926 22.89 105.905 22.98 105.905 23.03V23.02Z" fill="white" stroke="white" stroke-width="0.34" stroke-miterlimit="10"/>
<path d="M105.825 23.79L91.8614 23.08C91.8614 23.18 91.8414 23.29 91.8414 23.39L105.815 23.9V23.79H105.825Z" fill="white" stroke="white" stroke-width="0.34" stroke-miterlimit="10"/>
<path d="M105.845 25.36L91.9717 27.07C91.9015 26.51 91.8514 25.95 91.8314 25.38L105.805 24.7L105.835 25.37L105.845 25.36Z" fill="white" stroke="white" stroke-width="0.34" stroke-miterlimit="10"/>
<path d="M92.3629 29.3C92.2626 28.86 92.1724 28.41 92.1022 27.96L105.865 25.72C105.865 25.91 105.896 26.08 105.926 26.27L92.3629 29.31V29.3Z" fill="white" stroke="white" stroke-width="0.34" stroke-miterlimit="10"/>
<path d="M92.9643 31.49C92.824 31.06 92.6936 30.64 92.5834 30.2L105.976 26.62C105.996 26.8 106.036 26.97 106.066 27.15L92.9643 31.49Z" fill="white" stroke="white" stroke-width="0.34" stroke-miterlimit="10"/>
<path d="M93.7963 33.62C93.6059 33.23 93.4455 32.82 93.2951 32.41L106.136 27.52C106.166 27.7 106.206 27.87 106.256 28.04L93.7963 33.61V33.62Z" fill="white" stroke="white" stroke-width="0.34" stroke-miterlimit="10"/>
<path d="M94.8288 35.65C94.6083 35.28 94.4178 34.91 94.2274 34.53L106.357 28.46C106.407 28.63 106.457 28.8 106.497 28.96L94.8188 35.65H94.8288Z" fill="white" stroke="white" stroke-width="0.34" stroke-miterlimit="10"/>
<path d="M96.0518 37.57L95.3701 36.55L106.637 29.39C106.697 29.56 106.758 29.73 106.828 29.9L96.0618 37.57H96.0518Z" fill="white" stroke="white" stroke-width="0.34" stroke-miterlimit="10"/>
<path d="M97.4651 39.36L96.7033 38.44L106.988 30.34C107.048 30.51 107.128 30.67 107.209 30.83L97.4651 39.36Z" fill="white" stroke="white" stroke-width="0.34" stroke-miterlimit="10"/>
<path d="M99.049 41L98.217 40.18L107.429 31.31C107.509 31.48 107.59 31.64 107.68 31.8L99.049 41.01V41Z" fill="white" stroke="white" stroke-width="0.34" stroke-miterlimit="10"/>
<path d="M100.773 42.48L99.901 41.77L107.95 32.28C108.041 32.44 108.131 32.6 108.231 32.76L100.773 42.49V42.48Z" fill="white" stroke="white" stroke-width="0.34" stroke-miterlimit="10"/>
<path d="M102.648 43.78L101.735 43.18L108.562 33.26C108.662 33.41 108.782 33.57 108.893 33.72L102.648 43.79V43.78Z" fill="white" stroke="white" stroke-width="0.34" stroke-miterlimit="10"/>
<path d="M104.642 44.9L103.71 44.41L109.294 34.25C109.404 34.39 109.524 34.54 109.645 34.68L104.642 44.9Z" fill="white" stroke="white" stroke-width="0.34" stroke-miterlimit="10"/>
<path d="M116.942 39.53C116.752 39.47 116.551 39.41 116.361 39.33L116.942 39.53Z" fill="white"/>
<path d="M116.942 39.53C116.752 39.47 116.551 39.41 116.361 39.33" stroke="white" stroke-width="0.34" stroke-miterlimit="10"/>
<path d="M106.738 45.81L105.795 45.43L110.126 35.2C110.256 35.34 110.386 35.47 110.517 35.6C110.517 35.6 110.523 35.6067 110.537 35.62L106.748 45.81H106.738Z" fill="white" stroke="white" stroke-width="0.34" stroke-miterlimit="10"/>
<path d="M108.933 46.51L107.981 46.24L111.088 36.16C111.228 36.29 111.389 36.42 111.539 36.55L108.933 46.52V46.51Z" fill="white" stroke="white" stroke-width="0.34" stroke-miterlimit="10"/>
<path d="M111.168 46.99L110.236 46.83L112.181 37.06C112.341 37.18 112.501 37.3 112.662 37.41L111.158 46.99H111.168Z" fill="white" stroke="white" stroke-width="0.34" stroke-miterlimit="10"/>
<path d="M113.454 47.24L112.552 47.18L113.434 37.92C113.614 38.02 113.784 38.13 113.955 38.23L113.454 47.24Z" fill="white" stroke="white" stroke-width="0.34" stroke-miterlimit="10"/>
<path d="M114.867 47.29L114.817 38.69C115.007 38.78 115.188 38.87 115.378 38.94L115.729 47.27L114.857 47.29H114.867Z" fill="white" stroke="white" stroke-width="0.34" stroke-miterlimit="10"/>
<path d="M118.015 47.06L116.942 39.53C116.752 39.47 116.551 39.41 116.361 39.33L117.193 47.17L118.015 47.07V47.06Z" fill="white" stroke="white" stroke-width="0.34" stroke-miterlimit="10"/>
<path d="M120.26 46.63L118.626 39.97C118.426 39.94 118.225 39.89 118.025 39.84L119.488 46.81L120.27 46.62L120.26 46.63Z" fill="white" stroke="white" stroke-width="0.34" stroke-miterlimit="10"/>
<path d="M122.465 45.98L120.431 40.24C120.23 40.22 120.02 40.21 119.819 40.18L121.744 46.23L122.465 45.99V45.98Z" fill="white" stroke="white" stroke-width="0.34" stroke-miterlimit="10"/>
<path d="M124.591 45.1L122.315 40.28C122.155 40.3 121.984 40.3 121.824 40.3H121.714L123.929 45.41L124.591 45.1Z" fill="white" stroke="white" stroke-width="0.34" stroke-miterlimit="10"/>
<path d="M126.615 44.02L124.27 40.11C124.079 40.13 123.879 40.17 123.678 40.18L126.024 44.35L126.625 44.01L126.615 44.02Z" fill="white" stroke="white" stroke-width="0.34" stroke-miterlimit="10"/>
<path d="M128.52 42.75L126.224 39.68C126.034 39.74 125.854 39.78 125.663 39.82L127.979 43.12L128.51 42.74L128.52 42.75Z" fill="white" stroke="white" stroke-width="0.34" stroke-miterlimit="10"/>
<path d="M130.294 41.29L128.179 38.98C128.009 39.05 127.838 39.12 127.658 39.19L129.823 41.7L130.294 41.29Z" fill="white" stroke="white" stroke-width="0.34" stroke-miterlimit="10"/>
<path d="M131.497 40.09L129.583 38.28C129.743 38.2 129.893 38.1 130.054 38.01L131.898 39.67C131.768 39.81 131.638 39.95 131.497 40.09Z" fill="white" stroke="white" stroke-width="0.34" stroke-miterlimit="10"/>
<path d="M133.352 37.9L131.818 36.78C131.688 36.89 131.547 36.99 131.427 37.09L133.021 38.33L133.352 37.9Z" fill="white" stroke="white" stroke-width="0.34" stroke-miterlimit="10"/>
<path d="M134.364 36.42L133.101 35.64C133.101 35.64 133.121 35.62 133.131 35.61C133.231 35.51 133.342 35.4 133.442 35.3L134.625 36C134.535 36.14 134.454 36.29 134.364 36.43V36.42Z" fill="white" stroke="white" stroke-width="0.34" stroke-miterlimit="10"/>
<path d="M135.487 34.39L134.585 33.95C134.675 33.83 134.775 33.71 134.845 33.58L135.687 33.97C135.627 34.11 135.557 34.25 135.497 34.39H135.487Z" fill="white" stroke="white" stroke-width="0.34" stroke-miterlimit="10"/>
<path d="M136.409 32.25L135.838 32.04C135.898 31.92 135.968 31.8 136.028 31.67L136.549 31.85C136.519 31.99 136.469 32.12 136.409 32.25Z" fill="white" stroke="white" stroke-width="0.34" stroke-miterlimit="10"/>
<path d="M137.2 29.65L136.94 29.59C136.9 29.71 136.85 29.84 136.8 29.96L137.1 30.04L137.2 29.65Z" fill="white" stroke="white" stroke-width="0.34" stroke-miterlimit="10"/>
<path d="M137.562 27.74H137.462C137.482 27.62 137.512 27.5 137.522 27.39H137.612C137.612 27.52 137.592 27.63 137.552 27.74H137.562Z" fill="white" stroke="white" stroke-width="0.34" stroke-miterlimit="10"/>
<path d="M137.802 25.44C137.802 25.34 137.822 25.22 137.822 25.12C137.822 25.23 137.822 25.34 137.822 25.44H137.802Z" fill="white" stroke="white" stroke-width="0.34" stroke-miterlimit="10"/>
<path d="M123.829 23.77C123.829 23.55 123.809 23.34 123.799 23.13H123.769" fill="white"/>
<path d="M123.829 23.77C123.829 23.55 123.809 23.34 123.799 23.13H123.769" stroke="white" stroke-width="0.34" stroke-miterlimit="10"/>
</g>
<defs>
<clipPath id="clip0_2004_614">
<rect width="203.15" height="47.46" fill="white"/>
</clipPath>
</defs>
</svg>
